<svg xmlns="http://www.w3.org/2000/svg" viewBox="0 0 32 32">
  <defs>
    <linearGradient id="bg" x1="3" y1="2" x2="29" y2="30" gradientUnits="userSpaceOnUse">
      <stop stop-color="#D7FB8D"/>
      <stop offset=".48" stop-color="#7BE2A2"/>
      <stop offset="1" stop-color="#2C8F63"/>
    </linearGradient>
    <filter id="shadow" x="-20%" y="-20%" width="140%" height="140%">
      <feDropShadow dx="1.4" dy="1.8" stdDeviation=".8" flood-color="#06351F" flood-opacity=".5"/>
    </filter>
  </defs>
  <rect x="2" y="2" width="28" height="28" rx="8" fill="url(#bg)"/>
  <rect x="2" y="2" width="28" height="28" rx="8" fill="none" stroke="#F8FFE4" stroke-width="2"/>
  <g filter="url(#shadow)">
    <path d="M8.5 10.2C8.5 8.95 9.52 7.93 10.77 7.93H21.23C22.48 7.93 23.5 8.95 23.5 10.2V10.95C23.5 12.2 22.48 13.22 21.23 13.22H10.77C9.52 13.22 8.5 12.2 8.5 10.95V10.2Z" fill="#FFF36B"/>
    <path d="M13.15 13.22H18.85V23.2C18.85 24.78 17.58 26.05 16 26.05C14.42 26.05 13.15 24.78 13.15 23.2V13.22Z" fill="#FFF36B"/>
    <path d="M20.15 16.2C22.58 15.55 24.38 13.58 24.72 11.02" fill="none" stroke="#FFFBE4" stroke-width="2.25" stroke-linecap="round"/>
    <path d="M11.85 16.2C9.42 15.55 7.62 13.58 7.28 11.02" fill="none" stroke="#FFFBE4" stroke-width="2.25" stroke-linecap="round" opacity=".7"/>
  </g>
  <path d="M24.6 5.55L25.25 6.9L26.72 7.15L25.65 8.2L25.9 9.68L24.6 8.98L23.3 9.68L23.55 8.2L22.48 7.15L23.95 6.9L24.6 5.55Z" fill="#FFFBE4"/>
</svg>
